HIERARCHY
ROOT Hips
{
	OFFSET 0.000000 0.000000 0.000000 
	CHANNELS 6 Xposition Yposition Zposition Yrotation Zrotation Xrotation 
	JOINT Lumbar
	{
		OFFSET 0.000000 0.000000 0.000000 
		CHANNELS 3 Zrotation Xrotation Yrotation
		JOINT Neck
		{
			OFFSET 0.000000 0.445665 0.000000 
			CHANNELS 3 Zrotation Xrotation Yrotation
			End Site
			{
				OFFSET 0.000000 0.227535 0.000000 
			}
		}
		JOINT RightShoulder
		{
			OFFSET 0.019635 0.377685 0.194865 
			CHANNELS 3 Zrotation Xrotation Yrotation
			JOINT RightElbow
			{
				OFFSET 0.000000 -0.243375 0.000000 
				CHANNELS 2 Zrotation Yrotation
				JOINT RightWrist
				{
					OFFSET 0.000000 -0.264825 0.000000 
					CHANNELS 2 Zrotation Xrotation
					End Site
					{
						OFFSET 0.006600 -0.176220 0.000990 
					}
				}
			}
		}
		JOINT LeftShoulder
		{
			OFFSET 0.019635 0.377685 -0.194865 
			CHANNELS 3 Zrotation Xrotation Yrotation
			JOINT LeftElbow
			{
				OFFSET 0.000000 -0.243375 0.000000 
				CHANNELS 2 Zrotation Yrotation
				JOINT LeftWrist
				{
					OFFSET 0.000000 -0.264825 0.000000 
					CHANNELS 2 Zrotation Xrotation
					End Site
					{
						OFFSET 0.006600 -0.176220 -0.000990 
					}
				}
			}
		}
	}
	JOINT RightHip
	{
		OFFSET 0.052140 -0.069960 0.075570 
		CHANNELS 3 Zrotation Xrotation Yrotation
		JOINT RightKnee
		{
			OFFSET 0.000000 -0.402270 0.000000 
			CHANNELS 1 Zrotation
			JOINT RightAnkle
			{
				OFFSET 0.000000 -0.404085 0.000000 
				CHANNELS 3 Zrotation Xrotation Yrotation
				End Site
				{
					OFFSET 0.204105 -0.089430 0.008415 
				}
			}
		}
	}
	JOINT LeftHip
	{
		OFFSET 0.052140 -0.069960 -0.075570 
		CHANNELS 3 Zrotation Xrotation Yrotation
		JOINT LeftKnee
		{
			OFFSET 0.000000 -0.402270 0.000000 
			CHANNELS 1 Zrotation
			JOINT LeftAnkle
			{
				OFFSET 0.000000 -0.404085 0.000000 
				CHANNELS 3 Zrotation Xrotation Yrotation
				End Site
				{
					OFFSET 0.204105 -0.089430 -0.008415 
				}
			}
		}
	}
}
MOTION
Frames: 25
Frame Time: 0.02
0.21707 0.01386 0.12244 -48.442 -40.52912 8.29528 31.68347 -4.21824 2.26494 11.09754 -14.13005 -0.83079 60.86565 -3.21637 62.4014 80.02022 67.0428 9.85759 -7.60618 44.17504 12.89323 -37.17624 54.52859 -80.91562 -2.7329 6.81533 48.87856 -0.90088 -6.94135 -28.26016 -6.03655 -2.83982 -2.09605 76.86575 13.03185 -7.87136 -36.32435 -14.57786 3.58808 2.90891
0.21362 0.01368 0.12163 -48.59133 -40.28093 8.55503 31.87292 -4.17508 2.89784 11.11276 -13.88581 -0.83079 61.94024 -2.9534 62.32125 77.11442 66.6956 9.50859 -7.77601 41.68466 13.33355 -41.11495 57.68138 -80.62998 -1.7909 6.42701 48.74963 -0.97257 -6.64711 -28.2143 -6.03881 -2.84416 -2.09439 76.4906 13.41333 -7.30828 -36.41681 -14.35141 3.47319 2.827
0.21098 0.01353 0.12065 -48.73002 -40.12672 8.79742 31.95961 -4.15986 3.90254 11.13711 -13.5547 -0.83079 62.51745 -3.02592 62.18661 74.07674 66.99875 9.06926 -7.86629 39.24918 13.84754 -45.73705 62.87806 -80.27775 -0.6645 5.78732 48.70638 -1.09336 -6.40914 -28.20754 -6.03704 -2.85067 -2.09071 76.17652 13.90429 -6.28779 -36.59089 -13.99247 3.37034 2.74459
0.20802 0.01337 0.11976 -48.86516 -39.93702 9.03878 32.09229 -4.13083 4.73749 11.15056 -13.26229 -0.83079 63.23661 -2.97007 62.03585 71.17141 67.07563 8.70816 -7.9629 36.89387 14.32972 -49.94431 67.14086 -79.98586 0.36356 5.2812 48.62855 -1.19284 -6.17817 -28.18055 -6.03743 -2.8534 -2.08681 75.84422 14.3362 -5.50077 -36.72552 -13.70928 3.26567 2.66563
0.20488 0.01319 0.11883 -49.03723 -39.72108 9.31777 32.22666 -4.10801 5.5838 11.19091 -12.9708 -0.83079 64.32149 -2.80824 62.03989 67.91398 66.85504 8.18574 -8.18146 34.07151 14.81056 -54.64845 71.47733 -79.57015 1.46819 4.69577 48.53673 -1.28936 -5.81115 -28.16425 -6.0365 -2.86769 -2.08768 75.47735 14.8065 -4.61098 -36.87422 -13.36123 3.14504 2.57279
0.20232 0.01306 0.11794 -49.12781 -39.58131 9.5139 32.33288 -4.07841 6.48715 11.1795 -12.6591 -0.83079 64.52467 -2.9458 61.72163 65.38239 67.39993 7.97869 -8.13226 32.24334 15.30646 -58.44876 76.10462 -79.39158 2.44492 4.21651 48.49273 -1.402 -5.73605 -28.13365 -6.03733 -2.85916 -2.07849 75.19542 15.22294 -3.82323 -37.01057 -13.11523 3.06019 2.50843
0.20106 0.01306 0.11715 -49.01452 -39.61935 9.48986 32.39565 -4.02233 7.51221 11.00494 -12.29571 -0.83079 62.38914 -3.85908 60.44934 64.81343 70.02837 8.67479 -7.31837 33.1537 15.86315 -59.70499 81.28878 -79.93402 3.10217 4.07223 48.55971 -1.56241 -6.50533 -28.06875 -6.04418 -2.77888 -2.03786 75.12572 15.46603 -3.44648 -37.10331 -13.19926 3.07808 2.52822
0.20039 0.01312 0.11641 -48.81661 -39.73213 9.38235 32.43227 -3.9586 8.57086 10.78155 -11.91863 -0.83079 59.38893 -5.05585 58.87039 64.99803 73.38214 9.68983 -6.24616 35.06363 16.42511 -60.00177 86.63975 -80.71075 3.60877 4.04626 48.6714 -1.73467 -7.55665 -27.98554 -6.05293 -2.67701 -1.9879 75.13996 15.65057 -3.18497 -37.17844 -13.38761 3.13061 2.57589
0.19952 0.01317 0.11567 -48.64473 -39.81584 9.31013 32.47518 -3.89851 9.57788 10.592 -11.55875 -0.83079 56.79628 -6.10533 57.48428 64.89289 76.3229 10.55346 -5.32149 36.51659 16.95997 -60.65015 91.74868 -81.3445 4.13112 3.97885 48.76187 -1.89134 -8.44595 -27.90118 -6.06066 -2.59033 -1.94486 75.11952 15.86102 -2.85812 -37.2543 -13.51809 3.16271 2.60722
0.19836 0.01314 0.11484 -48.52309 -39.88109 9.24811 32.53801 -3.83793 10.75255 10.35261 -11.1481 -0.83079 54.11427 -7.25028 55.87091 64.56353 79.64191 11.44285 -4.26652 37.98762 17.60197 -61.66954 97.64711 -82.1198 4.88138 3.85196 48.85858 -2.09221 -9.48238 -27.85804 -6.0688 -2.48102 -1.89043 75.08623 16.07945 -2.56794 -37.36367 -13.68853 3.21431 2.65359
0.19797 0.0133 0.1142 -48.27917 -40.00275 9.14567 32.55458 -3.77719 11.57976 10.20653 -10.84278 -0.83079 51.43275 -8.25184 54.65805 64.87737 82.33211 12.35338 -3.42296 39.65128 18.02082 -61.69193 101.89413 -82.66964 5.12028 3.87873 48.95256 -2.20394 -10.27566 -27.72435 -6.07672 -2.41371 -1.85757 75.0994 16.2644 -2.23746 -37.39813 -13.80167 3.23425 2.67579
0.19943 0.01398 0.11408 -47.69915 -40.24915 8.94825 32.44981 -3.70921 11.45019 10.31906 -10.81721 -0.83079 48.85647 -8.85228 54.63452 66.82095 83.14685 13.26058 -3.22434 41.65608 17.82637 -59.08511 101.70799 -82.425 3.9742 4.31412 49.02092 -2.06025 -10.35413 -27.34342 -6.08251 -2.46731 -1.8863 75.2155 16.38359 -1.74612 -37.22902 -13.73679 3.15099 2.62001
0.20167 0.01486 0.11414 -47.00318 -40.55184 8.71366 32.30004 -3.643 10.96676 10.52861 -10.90091 -0.83079 46.33602 -9.28586 55.02395 69.37618 83.29333 14.17361 -3.24831 43.80797 17.4077 -55.52799 99.81973 -81.96386 2.32334 4.89779 49.08597 -1.8276 -10.17347 -26.8721 -6.08825 -2.56388 -1.93709 75.37646 16.46813 -1.21676 -36.98556 -13.61033 3.03611 2.53985
0.20365 0.01566 0.11411 -46.37216 -40.83633 8.49886 32.17127 -3.58128 10.63515 10.70164 -10.94496 -0.83079 43.85943 -9.75093 55.21842 71.63145 83.71739 15.07606 -3.17201 45.85963 17.08638 -52.4715 98.58108 -81.68142 0.90426 5.40748 49.15667 -1.63939 -10.09387 -26.44312 -6.09472 -2.64107 -1.97803 75.51921 16.55999 -0.72088 -36.77554 -13.50884 2.94029 2.47367
0.20525 0.01642 0.1141 -45.68408 -41.09141 8.26956 32.03875 -3.49615 10.33921 10.84337 -10.94765 -0.83079 41.04813 -10.40966 55.43058 74.01941 84.2775 16.03066 -3.08245 48.09552 16.77751 -49.08012 97.84289 -81.08137 -0.54551 5.95333 49.21115 -1.43389 -10.09313 -26.00832 -6.09821 -2.71722 -2.01808 75.65406 16.68588 -0.15946 -36.56372 -13.42324 2.82541 2.39592
0.20784 0.0173 0.1141 -45.0914 -41.42126 8.06192 31.90426 -3.4613 9.88913 11.07098 -11.06082 -0.83079 38.97352 -10.62625 55.71091 76.24932 84.38595 16.86434 -3.07729 49.9591 16.39813 -46.18751 95.69318 -81.07172 -2.02986 6.45211 49.29845 -1.2441 -9.86485 -25.56429 -6.10791 -2.80563 -2.06512 75.81699 16.73287 0.27485 -36.34163 -13.28907 2.74285 2.33648
0.21288 0.01843 0.11407 -44.76576 -41.93407 7.93001 31.77062 -3.55656 9.06083 11.53832 -11.46776 -0.83079 38.79421 -9.62083 56.05334 78.0333 83.41332 17.44669 -3.24588 50.84318 15.80057 -44.77522 89.73734 -82.89102 -3.65037 6.83239 49.47291 -1.11081 -9.05345 -25.1169 -6.13453 -2.92087 -2.12791 76.02829 16.57566 0.35848 -36.07985 -13.03127 2.75191 2.33026
0.21891 0.01966 0.11404 -44.5454 -42.52174 7.82009 31.63744 -3.70404 8.09794 12.08422 -11.97904 -0.83079 39.37992 -8.18236 56.45527 79.60512 82.01008 17.89251 -3.49285 51.32683 15.15208 -43.92023 82.48094 -85.28605 -5.25564 7.1515 49.68083 -0.99785 -8.02404 -24.66273 -6.16748 -3.04644 -2.19666 76.26934 16.33992 0.31201 -35.81575 -12.72713 2.79528 2.34371
0.22455 0.02086 0.11401 -44.29324 -43.081 7.69637 31.50747 -3.83303 7.22061 12.57693 -12.43283 -0.83079 39.70486 -6.96847 56.84932 81.18094 80.79211 18.34078 -3.7098 51.93311 14.58122 -42.90786 76.02982 -87.31764 -6.76106 7.46573 49.87631 -0.88134 -7.10484 -24.21263 -6.19767 -3.16509 -2.26149 76.50815 16.13652 0.31885 -35.57231 -12.44662 2.82645 2.35029
0.22994 0.02202 0.11402 -43.96836 -43.6181 7.58841 31.36202 -3.93967 6.22301 13.14617 -12.93402 -0.83079 39.67357 -5.63255 57.18114 83.17711 79.57448 19.03016 -3.91519 52.79509 13.78202 -41.48306 68.6082 -89.76148 -8.74008 7.91992 50.06101 -0.73819 -6.12945 -23.75804 -6.22726 -3.29457 -2.33215 76.70063 15.94448 0.3499 -35.24405 -12.15293 2.84272 2.34763
0.23609 0.02328 0.11393 -43.82257 -44.219 7.45205 31.24881 -4.10559 5.45479 13.57424 -13.35849 -0.83079 40.55368 -4.44898 57.64577 84.22882 78.2886 19.19851 -4.15476 53.02814 13.4373 -41.02933 62.92979 -91.49883 -9.71607 8.0702 50.27492 -0.65592 -5.22308 -23.30878 -6.25971 -3.40348 -2.39185 76.99646 15.71249 0.30114 -35.0922 -11.87676 2.89793 2.36881
0.24409 0.02477 0.11357 -44.13598 -44.97183 7.24327 31.23027 -4.41916 5.30031 13.58579 -13.55667 -0.83079 43.86421 -3.80162 58.51051 82.80962 76.69247 17.84097 -4.51839 51.61645 14.46148 -43.40739 62.30993 -91.03199 -7.98702 7.36032 50.57105 -0.74249 -4.5591 -22.9075 -6.29781 -3.4523 -2.41926 77.56682 15.3734 0.04665 -35.43405 -11.6581 3.05796 2.45444
0.25281 0.02636 0.11311 -44.62773 -45.78675 7.00338 31.24298 -4.79102 5.39221 13.45357 -13.67149 -0.83079 48.04575 -3.32135 59.4968 80.42869 75.08425 15.98474 -4.90432 49.58863 15.92541 -46.69406 63.50471 -89.85342 -5.24223 6.35271 50.89304 -0.88907 -3.97452 -22.5067 -6.3388 -3.48007 -2.43546 78.24054 14.99993 -0.28067 -35.95257 -11.45945 3.25504 2.56284
0.2612 0.02792 0.1127 -45.04549 -46.5773 6.77029 31.23825 -5.13853 5.40845 13.39149 -13.81658 -0.83079 51.76314 -2.75934 60.39275 78.42843 73.63889 14.43772 -5.24588 47.84255 17.12458 -49.38261 63.934 -89.07925 -2.9109 5.50412 51.19753 -1.00478 -3.3548 -22.08497 -6.37882 -3.51766 -2.45696 78.86912 14.65296 -0.56353 -36.38688 -11.25331 3.43166 2.65871
0.26968 0.02943 0.1123 -45.43966 -47.35573 6.56831 31.24852 -5.47952 5.26933 13.3116 -13.99726 -0.83079 55.79883 -2.20736 61.43534 76.65723 71.53002 12.54346 -5.73149 46.06409 18.60231 -52.87503 64.09494 -87.99528 -0.75346 4.5531 51.52982 -1.13606 -2.71983 -21.749 -6.41721 -3.55427 -2.47765 79.49126 14.25758 -0.89876 -36.83844 -11.03847 3.62496 2.76456
